<mxfile host="Electron" agent="Mozilla/5.0 (Windows NT 10.0; Win64; x64) AppleWebKit/537.36 (KHTML, like Gecko) draw.io/26.2.15 Chrome/134.0.6998.205 Electron/35.2.1 Safari/537.36" version="26.2.15">
  <diagram name="Page-1" id="cmtZPxHfO6NSbrS_fuOM">
    <mxGraphModel dx="786" dy="524" grid="1" gridSize="10" guides="1" tooltips="1" connect="1" arrows="1" fold="1" page="1" pageScale="1" pageWidth="850" pageHeight="1100" math="0" shadow="0">
      <root>
        <mxCell id="0" />
        <mxCell id="1" parent="0" />
        <mxCell id="m0wXmuHj6QDEM81OvpLF-18" value="ALGORITMA 3 (While)" style="text;html=1;align=center;verticalAlign=middle;resizable=0;points=[];autosize=1;strokeColor=none;fillColor=none;" parent="1" vertex="1">
          <mxGeometry x="285" y="18" width="140" height="30" as="geometry" />
        </mxCell>
        <mxCell id="YYFKWcgho64P03Yeviva-2" value="" style="group" parent="1" vertex="1" connectable="0">
          <mxGeometry x="180" y="60" width="350" height="380" as="geometry" />
        </mxCell>
        <mxCell id="m0wXmuHj6QDEM81OvpLF-9" style="edgeStyle=orthogonalEdgeStyle;rounded=0;orthogonalLoop=1;jettySize=auto;html=1;entryX=0.5;entryY=0;entryDx=0;entryDy=0;" parent="YYFKWcgho64P03Yeviva-2" source="m0wXmuHj6QDEM81OvpLF-1" target="m0wXmuHj6QDEM81OvpLF-3" edge="1">
          <mxGeometry relative="1" as="geometry" />
        </mxCell>
        <mxCell id="m0wXmuHj6QDEM81OvpLF-1" value="Mulai" style="rounded=1;whiteSpace=wrap;html=1;" parent="YYFKWcgho64P03Yeviva-2" vertex="1">
          <mxGeometry x="165" width="120" height="30" as="geometry" />
        </mxCell>
        <mxCell id="m0wXmuHj6QDEM81OvpLF-10" style="edgeStyle=orthogonalEdgeStyle;rounded=0;orthogonalLoop=1;jettySize=auto;html=1;exitX=0.5;exitY=1;exitDx=0;exitDy=0;entryX=0.5;entryY=0;entryDx=0;entryDy=0;" parent="YYFKWcgho64P03Yeviva-2" source="m0wXmuHj6QDEM81OvpLF-3" target="m0wXmuHj6QDEM81OvpLF-4" edge="1">
          <mxGeometry relative="1" as="geometry" />
        </mxCell>
        <mxCell id="m0wXmuHj6QDEM81OvpLF-3" value="input(ayam)" style="shape=parallelogram;perimeter=parallelogramPerimeter;whiteSpace=wrap;html=1;fixedSize=1;" parent="YYFKWcgho64P03Yeviva-2" vertex="1">
          <mxGeometry x="165" y="60" width="120" height="40" as="geometry" />
        </mxCell>
        <mxCell id="m0wXmuHj6QDEM81OvpLF-11" style="edgeStyle=orthogonalEdgeStyle;rounded=0;orthogonalLoop=1;jettySize=auto;html=1;entryX=0.5;entryY=0;entryDx=0;entryDy=0;" parent="YYFKWcgho64P03Yeviva-2" source="m0wXmuHj6QDEM81OvpLF-4" target="m0wXmuHj6QDEM81OvpLF-5" edge="1">
          <mxGeometry relative="1" as="geometry" />
        </mxCell>
        <mxCell id="m0wXmuHj6QDEM81OvpLF-19" value="T" style="edgeLabel;html=1;align=center;verticalAlign=middle;resizable=0;points=[];" parent="m0wXmuHj6QDEM81OvpLF-11" vertex="1" connectable="0">
          <mxGeometry x="-0.4466" y="1" relative="1" as="geometry">
            <mxPoint x="4" y="-1" as="offset" />
          </mxGeometry>
        </mxCell>
        <mxCell id="m0wXmuHj6QDEM81OvpLF-16" style="edgeStyle=orthogonalEdgeStyle;rounded=0;orthogonalLoop=1;jettySize=auto;html=1;exitX=0;exitY=0.5;exitDx=0;exitDy=0;entryX=1;entryY=0.5;entryDx=0;entryDy=0;" parent="YYFKWcgho64P03Yeviva-2" source="m0wXmuHj6QDEM81OvpLF-4" target="m0wXmuHj6QDEM81OvpLF-7" edge="1">
          <mxGeometry relative="1" as="geometry" />
        </mxCell>
        <mxCell id="m0wXmuHj6QDEM81OvpLF-20" value="F" style="edgeLabel;html=1;align=center;verticalAlign=middle;resizable=0;points=[];" parent="m0wXmuHj6QDEM81OvpLF-16" vertex="1" connectable="0">
          <mxGeometry x="-0.1162" y="-3" relative="1" as="geometry">
            <mxPoint x="4" y="-7" as="offset" />
          </mxGeometry>
        </mxCell>
        <mxCell id="m0wXmuHj6QDEM81OvpLF-4" value="ayam &amp;gt; 1" style="rhombus;whiteSpace=wrap;html=1;" parent="YYFKWcgho64P03Yeviva-2" vertex="1">
          <mxGeometry x="185" y="140" width="80" height="80" as="geometry" />
        </mxCell>
        <mxCell id="m0wXmuHj6QDEM81OvpLF-12" style="edgeStyle=orthogonalEdgeStyle;rounded=0;orthogonalLoop=1;jettySize=auto;html=1;entryX=0.5;entryY=0;entryDx=0;entryDy=0;" parent="YYFKWcgho64P03Yeviva-2" source="m0wXmuHj6QDEM81OvpLF-5" target="m0wXmuHj6QDEM81OvpLF-6" edge="1">
          <mxGeometry relative="1" as="geometry" />
        </mxCell>
        <mxCell id="m0wXmuHj6QDEM81OvpLF-5" value="ayam ← ayam - 1" style="rounded=0;whiteSpace=wrap;html=1;" parent="YYFKWcgho64P03Yeviva-2" vertex="1">
          <mxGeometry x="165" y="251" width="120" height="30" as="geometry" />
        </mxCell>
        <mxCell id="m0wXmuHj6QDEM81OvpLF-6" value="output(ayam)" style="shape=parallelogram;perimeter=parallelogramPerimeter;whiteSpace=wrap;html=1;fixedSize=1;" parent="YYFKWcgho64P03Yeviva-2" vertex="1">
          <mxGeometry x="165" y="330" width="120" height="40" as="geometry" />
        </mxCell>
        <mxCell id="m0wXmuHj6QDEM81OvpLF-17" style="edgeStyle=orthogonalEdgeStyle;rounded=0;orthogonalLoop=1;jettySize=auto;html=1;entryX=0.5;entryY=0;entryDx=0;entryDy=0;" parent="YYFKWcgho64P03Yeviva-2" source="m0wXmuHj6QDEM81OvpLF-7" target="m0wXmuHj6QDEM81OvpLF-8" edge="1">
          <mxGeometry relative="1" as="geometry" />
        </mxCell>
        <mxCell id="m0wXmuHj6QDEM81OvpLF-7" value="output(&quot;mati satu tinggal induknya&quot;)" style="shape=parallelogram;perimeter=parallelogramPerimeter;whiteSpace=wrap;html=1;fixedSize=1;" parent="YYFKWcgho64P03Yeviva-2" vertex="1">
          <mxGeometry y="150" width="130" height="60" as="geometry" />
        </mxCell>
        <mxCell id="m0wXmuHj6QDEM81OvpLF-8" value="Selesai" style="rounded=1;whiteSpace=wrap;html=1;" parent="YYFKWcgho64P03Yeviva-2" vertex="1">
          <mxGeometry x="5" y="252" width="120" height="29" as="geometry" />
        </mxCell>
        <mxCell id="m0wXmuHj6QDEM81OvpLF-14" value="" style="endArrow=none;html=1;rounded=0;exitX=1;exitY=0.5;exitDx=0;exitDy=0;" parent="YYFKWcgho64P03Yeviva-2" source="m0wXmuHj6QDEM81OvpLF-6" edge="1">
          <mxGeometry width="50" height="50" relative="1" as="geometry">
            <mxPoint x="320" y="360" as="sourcePoint" />
            <mxPoint x="340" y="180" as="targetPoint" />
            <Array as="points">
              <mxPoint x="340" y="350" />
            </Array>
          </mxGeometry>
        </mxCell>
        <mxCell id="m0wXmuHj6QDEM81OvpLF-15" value="" style="endArrow=classic;html=1;rounded=0;entryX=1;entryY=0.5;entryDx=0;entryDy=0;" parent="YYFKWcgho64P03Yeviva-2" target="m0wXmuHj6QDEM81OvpLF-4" edge="1">
          <mxGeometry width="50" height="50" relative="1" as="geometry">
            <mxPoint x="340" y="180" as="sourcePoint" />
            <mxPoint x="340" y="160" as="targetPoint" />
          </mxGeometry>
        </mxCell>
        <mxCell id="M0o1j7muww74c0IS1GSi-1" value="" style="rounded=0;whiteSpace=wrap;html=1;fillColor=#008a00;fontColor=#ffffff;strokeColor=#005700;opacity=30;" parent="YYFKWcgho64P03Yeviva-2" vertex="1">
          <mxGeometry x="150" y="120" width="200" height="260" as="geometry" />
        </mxCell>
      </root>
    </mxGraphModel>
  </diagram>
</mxfile>
